<svg width="21" height="20" viewBox="0 0 21 20" fill="none" xmlns="http://www.w3.org/2000/svg">
<g clip-path="url(#clip0_6_17)">
<path d="M13.5075 0.672272L16.515 6.55462M4.48496 6.55462L7.49247 0.672272M18.4398 6.55462H2.56014C2.33461 6.54952 2.11093 6.60119 1.90569 6.70581C1.70045 6.81044 1.51889 6.96533 1.37448 7.15901C1.23006 7.3527 1.12649 7.58021 1.07143 7.82471C1.01636 8.0692 1.01122 8.32441 1.05639 8.57143L2.71052 17.8151C2.78082 18.2005 2.9698 18.546 3.24457 18.7917C3.51933 19.0374 3.86248 19.1676 4.21428 19.1597H16.7857C17.1375 19.1676 17.4807 19.0374 17.7554 18.7917C18.0302 18.546 18.2192 18.2005 18.2895 17.8151L19.9436 8.57143C19.9888 8.32441 19.9836 8.0692 19.9286 7.82471C19.8735 7.58021 19.7699 7.3527 19.6255 7.15901C19.4811 6.96533 19.2995 6.81044 19.0943 6.70581C18.8891 6.60119 18.6654 6.54952 18.4398 6.55462Z" stroke="black" stroke-linecap="round" stroke-linejoin="round"/>
</g>
<defs>
<clipPath id="clip0_6_17">
<rect width="20" height="20" fill="white" transform="translate(0.5)"/>
</clipPath>
</defs>
</svg>
