<svg width="200" height="192" viewBox="0 0 200 192" fill="none" xmlns="http://www.w3.org/2000/svg">
<path d="M100 8.66667C112.352 8.65411 124.552 11.3931 135.713 16.6847C146.874 21.9763 156.717 29.6875 164.525 39.2583L111.783 92L164.525 144.742C156.717 154.312 146.874 162.024 135.713 167.315C124.552 172.607 112.352 175.346 100 175.333C53.975 175.333 16.6667 138.025 16.6667 92C16.6667 45.975 53.975 8.66667 100 8.66667ZM100 25.3333C89.4827 25.3352 79.1151 27.8254 69.7443 32.6003C60.3734 37.3753 52.2653 44.2997 46.0823 52.8075C39.8993 61.3154 35.817 71.1654 34.1689 81.5528C32.5207 91.9401 33.3535 102.57 36.5993 112.574C39.845 122.578 45.4115 131.672 52.8441 139.113C60.2766 146.554 69.3642 152.131 79.3643 155.389C89.3645 158.646 99.9934 159.491 110.383 157.855C120.772 156.219 130.627 152.148 139.142 145.975L140.875 144.667L88.2084 92L140.875 39.325L139.142 38.025C128.465 30.2639 115.716 25.8626 102.525 25.3833L100 25.3333ZM100 33.6667C103.315 33.6667 106.495 34.9836 108.839 37.3278C111.183 39.672 112.5 42.8515 112.5 46.1667C112.5 49.4819 111.183 52.6613 108.839 55.0055C106.495 57.3497 103.315 58.6667 100 58.6667C96.6848 58.6667 93.5054 57.3497 91.1612 55.0055C88.817 52.6613 87.5 49.4819 87.5 46.1667C87.5 42.8515 88.817 39.672 91.1612 37.3278C93.5054 34.9836 96.6848 33.6667 100 33.6667Z" fill="white" fill-opacity="0.7"/>
</svg>
