<svg width="332" height="247" viewBox="0 0 332 247" fill="none" xmlns="http://www.w3.org/2000/svg">
<g clip-path="url(#clip0_10_179)">
<path fill-rule="evenodd" clip-rule="evenodd" d="M82.7463 75.2435C86.6912 69.8115 91.821 65.9314 96.2028 62.9277L102.513 58.6024C113.163 51.3017 125.807 47.484 138.718 47.6812L146.403 47.7935C150.432 47.8537 154.381 46.6625 157.705 44.384C161.029 42.1055 163.564 38.852 164.961 35.072L167.628 27.864C172.102 15.7549 180.223 5.33246 190.871 -1.96608L197.181 -6.29138C201.573 -9.30213 207.042 -12.6874 213.521 -14.4006C232.017 -19.3202 252.093 -15.2594 273.295 -0.953814C294.281 13.2124 316.85 37.6904 341.321 74.7157C346.487 82.5402 351.465 91.858 353.829 101.695C356.249 111.66 356.09 122.725 350.142 133.017C346.438 139.451 341.33 144.967 335.199 149.155C328.165 154.113 319.821 156.879 311.219 157.106C304.161 157.246 297.076 156.041 291.019 155.01C290.296 154.888 289.572 154.768 288.848 154.649C281.926 153.484 276.269 152.77 270.979 153.41C264.317 154.233 257.95 156.644 252.413 160.439L231.793 174.574C226.255 178.376 221.71 183.451 218.538 189.373C216.026 194.065 214.659 199.609 213.25 206.486L212.803 208.641C211.573 214.652 210.149 221.705 207.474 228.237C204.156 236.176 198.564 242.956 191.402 247.725C185.282 251.931 178.293 254.702 170.954 255.832C159.199 257.676 148.838 253.836 140.417 247.985C132.095 242.233 125.199 234.23 119.765 226.589C94.0563 190.412 79.3649 160.534 73.7205 135.852C68.0244 110.917 71.4802 90.7104 82.7463 75.2435ZM106.804 78.393C102.845 81.1069 99.9118 83.5268 97.9084 86.264C90.5774 96.351 87.2082 110.648 92.0149 131.677C96.8766 152.94 110.023 180.498 135.064 215.723C139.856 222.471 145.287 228.537 151.098 232.571C156.815 236.533 162.384 238.201 168.072 237.303C172.647 236.608 177.003 234.881 180.811 232.253C185.812 228.825 188.593 224.858 190.14 221.1C192.092 216.321 193.176 211.093 194.457 204.804L194.888 202.69C196.294 195.877 198.066 187.872 202.018 180.526C206.603 171.951 213.183 164.603 221.202 159.101L241.812 144.973C249.833 139.475 259.053 135.989 268.707 134.796C276.981 133.778 285.096 135.004 291.951 136.14L294.078 136.5C300.423 137.577 305.68 138.459 310.844 138.343C314.904 138.274 319.607 137.11 324.618 133.676C328.814 130.799 331.796 127.3 333.919 123.632C336.795 118.63 337.254 112.845 335.627 106.094C333.954 99.2092 330.254 91.9552 325.689 85.0521C301.855 48.9997 280.904 26.7927 262.817 14.5792C244.944 2.52241 230.394 0.508689 218.342 3.70853C215.067 4.58988 211.741 6.46001 207.793 9.16687L201.483 13.4922C194.039 18.5949 188.353 25.887 185.217 34.3562L182.558 41.5745C179.817 48.9918 174.842 55.3761 168.32 59.847C161.797 64.3179 154.049 66.6553 146.142 66.5369L138.45 66.4143C129.42 66.2811 120.572 68.9527 113.124 74.0606L106.804 78.393ZM135.633 111.673C137.684 110.267 140.21 109.734 142.654 110.19C145.098 110.646 147.261 112.054 148.667 114.105L153.967 121.838L161.7 116.537C163.751 115.131 166.276 114.598 168.72 115.054C171.165 115.51 173.328 116.918 174.733 118.969C176.139 121.02 176.673 123.545 176.217 125.989C175.76 128.434 174.352 130.597 172.301 132.002L164.569 137.303L169.869 145.036C171.275 147.086 171.809 149.612 171.352 152.056C170.896 154.5 169.488 156.663 167.437 158.069C165.386 159.475 162.861 160.008 160.417 159.552C157.973 159.096 155.81 157.688 154.404 155.637L149.103 147.904L141.371 153.205C139.32 154.611 136.795 155.144 134.35 154.688C131.906 154.232 129.743 152.824 128.337 150.773C126.932 148.722 126.398 146.197 126.854 143.752C127.31 141.308 128.719 139.145 130.769 137.74L138.502 132.439L133.201 124.706C131.796 122.655 131.262 120.13 131.718 117.686C132.174 115.242 133.583 113.079 135.633 111.673Z" fill="white" fill-opacity="0.7"/>
<path d="M268.336 51.0172C269.742 53.068 270.275 55.5933 269.819 58.0375C269.363 60.4817 267.955 62.6446 265.904 64.0504C263.853 65.4563 261.328 65.9898 258.884 65.5337C256.439 65.0776 254.276 63.6692 252.871 61.6184C251.465 59.5676 250.931 57.0423 251.387 54.5981C251.843 52.1539 253.252 49.9909 255.303 48.5851C257.353 47.1793 259.879 46.6458 262.323 47.1019C264.767 47.558 266.93 48.9663 268.336 51.0172ZM237.405 72.2197C238.811 74.2705 239.345 76.7958 238.889 79.24C238.432 81.6842 237.024 83.8471 234.973 85.2529C232.922 86.6588 230.397 87.1923 227.953 86.7362C225.509 86.2801 223.346 84.8717 221.94 82.8209C220.534 80.7701 220.001 78.2448 220.457 75.8006C220.913 73.3564 222.321 71.1934 224.372 69.7876C226.423 68.3818 228.948 67.8483 231.392 68.3044C233.837 68.7605 235.999 70.1688 237.405 72.2197ZM229.236 43.7211C231.287 42.3152 233.812 41.7817 236.256 42.2378C238.701 42.6939 240.864 44.1023 242.269 46.1531C243.675 48.2039 244.209 50.7292 243.753 53.1734C243.297 55.6176 241.888 57.7806 239.837 59.1864C237.786 60.5922 235.261 61.1257 232.817 60.6696C230.373 60.2135 228.21 58.8052 226.804 56.7543C225.398 54.7035 224.865 52.1782 225.321 49.734C225.777 47.2898 227.185 45.1269 229.236 43.7211ZM250.439 74.6517C251.454 73.9556 252.597 73.4664 253.801 73.2119C255.006 72.9574 256.249 72.9426 257.459 73.1684C258.669 73.3943 259.823 73.8563 260.855 74.5281C261.886 75.1998 262.776 76.0683 263.472 77.0837C264.168 78.0992 264.657 79.2418 264.912 80.4464C265.166 81.6509 265.181 82.8938 264.955 84.1041C264.729 85.3143 264.267 86.4682 263.595 87.4999C262.924 88.5316 262.055 89.4209 261.04 90.117C258.989 91.5228 256.464 92.0564 254.019 91.6003C251.575 91.1442 249.412 89.7358 248.007 87.685C246.601 85.6341 246.067 83.1089 246.523 80.6647C246.979 78.2204 248.388 76.0575 250.439 74.6517Z" fill="white" fill-opacity="0.7"/>
</g>
<defs>
<clipPath id="clip0_10_179">
<rect width="300" height="300" fill="white" transform="translate(0 79.6199) rotate(-34.4301)"/>
</clipPath>
</defs>
</svg>
