<svg width="76" height="26" viewBox="0 0 76 26" fill="none" xmlns="http://www.w3.org/2000/svg">
<path d="M12.73 3C14.61 3 16.23 3.32 17.59 3.96C18.97 4.6 20.02 5.51 20.74 6.69C21.46 7.85 21.82 9.21 21.82 10.77C21.82 12.31 21.46 13.67 20.74 14.85C20.02 16.01 18.97 16.91 17.59 17.55C16.23 18.19 14.61 18.51 12.73 18.51H2.98V13.53H12.34C13.34 13.53 14.12 13.29 14.68 12.81C15.24 12.31 15.52 11.63 15.52 10.77C15.52 9.89 15.24 9.21 14.68 8.73C14.12 8.23 13.34 7.98 12.34 7.98H3.52L6.31 5.1V25.5H0.1V3H12.73ZM24.1136 8.1L27.2036 8.7L30.2636 8.1V25.5H24.1136V8.1ZM27.1736 6.69C26.1136 6.69 25.2536 6.43 24.5936 5.91C23.9336 5.37 23.6036 4.64 23.6036 3.72C23.6036 2.82 23.9336 2.1 24.5936 1.56C25.2536 1.02 26.1136 0.749999 27.1736 0.749999C28.2736 0.749999 29.1436 1.02 29.7836 1.56C30.4436 2.1 30.7736 2.82 30.7736 3.72C30.7736 4.64 30.4436 5.37 29.7836 5.91C29.1436 6.43 28.2736 6.69 27.1736 6.69ZM31.5951 25.5L39.5451 15.9L39.5151 17.7L32.0451 8.37H38.8551L43.6851 14.28H41.8851L46.7151 8.37H53.4351L45.6951 17.76L45.3951 15.33L53.9151 25.5H46.9551L41.7051 19.17H43.6251L38.4351 25.5H31.5951ZM61.8276 3V22.74L59.0376 19.98H75.8676V25.5H55.6176V3H61.8276Z" fill="url(#paint0_linear_3_5)"/>
<defs>
<linearGradient id="paint0_linear_3_5" x1="-2" y1="14" x2="77" y2="14" gradientUnits="userSpaceOnUse">
<stop stop-color="#FF7B7B"/>
<stop offset="1" stop-color="#6254FF"/>
</linearGradient>
</defs>
</svg>
