<svg width="21" height="20" viewBox="0 0 21 20" fill="none" xmlns="http://www.w3.org/2000/svg">
<path d="M13.5 14C13.5 13.4477 13.0523 13 12.5 13C11.9477 13 11.5 13.4477 11.5 14C11.5 14.5523 11.9477 15 12.5 15C13.0523 15 13.5 14.5523 13.5 14Z" fill="black"/>
<path d="M8.5 13H4.5M6.5 11V15" stroke="black" stroke-linecap="round"/>
<path d="M16.5 12C16.5 11.4477 16.0523 11 15.5 11C14.9477 11 14.5 11.4477 14.5 12C14.5 12.5523 14.9477 13 15.5 13C16.0523 13 16.5 12.5523 16.5 12Z" fill="black"/>
<path d="M12.5 7C12.5 6.583 12.5 6.375 12.466 6.191C12.4067 5.87728 12.2732 5.58231 12.0766 5.33074C11.8801 5.07918 11.6261 4.87833 11.336 4.745C11.166 4.667 10.964 4.616 10.56 4.515L10.5 4.5C10.039 4.385 9.808 4.327 9.617 4.233C9.34634 4.0998 9.10931 3.90711 8.92367 3.66934C8.73803 3.43157 8.60857 3.15488 8.545 2.86C8.5 2.652 8.5 2.414 8.5 1.938V1" stroke="black" stroke-linecap="round"/>
<path d="M1.5 13C1.5 10.441 1.5 9.162 2.12 8.28C2.28 8.054 2.466 7.85 2.674 7.676C3.482 7 4.654 7 7 7H14C16.346 7 17.518 7 18.326 7.676C18.534 7.85 18.721 8.054 18.88 8.28C19.5 9.162 19.5 10.441 19.5 13C19.5 15.559 19.5 16.838 18.88 17.72C18.7224 17.9446 18.5362 18.1477 18.326 18.324C17.518 19 16.346 19 14 19H7C4.654 19 3.482 19 2.674 18.324C2.46382 18.1477 2.27757 17.9446 2.12 17.72C1.5 16.838 1.5 15.559 1.5 13Z" stroke="black"/>
</svg>
