<svg width="311" height="247" viewBox="0 0 311 247" fill="none" xmlns="http://www.w3.org/2000/svg">
<g clip-path="url(#clip0_10_184)">
<path d="M261.257 137.714L181.39 161.498L205.174 241.365L285.041 217.581L261.257 137.714ZM70.8381 63.9948L139.548 130.483L49.6971 157.241L70.8381 63.9948ZM209.431 109.672C220.022 106.518 228.927 99.286 234.185 89.5668C239.444 79.8476 240.627 68.4375 237.473 57.8464C234.319 47.2554 227.087 38.3511 217.367 33.0923C207.648 27.8335 196.238 26.651 185.647 29.805C175.056 32.959 166.152 40.191 160.893 49.9102C155.634 59.6294 154.452 71.0396 157.606 81.6306C160.76 92.2217 167.992 101.126 177.711 106.385C187.43 111.644 198.84 112.826 209.431 109.672Z" stroke="white" stroke-opacity="0.7" stroke-width="14" stroke-linejoin="round"/>
<path d="M61.5892 197.174L165.24 253.257M141.456 173.39L85.3734 277.041" stroke="white" stroke-opacity="0.7" stroke-width="14" stroke-linecap="round" stroke-linejoin="round"/>
</g>
<defs>
<clipPath id="clip0_10_184">
<rect width="250" height="250" fill="white" transform="translate(0 63.3527) rotate(-16.5834)"/>
</clipPath>
</defs>
</svg>
